<?xml version="1.0" standalone="no"?><!DOCTYPE svg PUBLIC "-//W3C//DTD SVG 1.1//EN" "http://www.w3.org/Graphics/SVG/1.1/DTD/svg11.dtd"><svg t="1620202937019" class="icon" viewBox="0 0 1024 1024" version="1.1" xmlns="http://www.w3.org/2000/svg" p-id="3913" xmlns:xlink="http://www.w3.org/1999/xlink" width="200" height="200"><defs><style type="text/css"></style></defs><path d="M344.375715 597.423633c8.668783-3.250794 19.143563-6.140388 31.424339-14.086772 18.059965-11.197178 32.146737-35.036332-1.444798-63.571076-111.610582-160.372487-70.795062-266.926279-54.179894-307.019401-14.086772-5.417989-30.340741-8.668783-48.761905-8.668783h-5.779188c-106.553792 0-134.727337 96.801411-136.894533 151.342505-1.444797 127.86455 76.93545 179.15485 76.93545 179.15485s5.05679 6.862787 5.05679 26.367548c0 4.334392-2.889594 17.698765-7.946384 21.671958-43.705115 35.397531-189.62963 72.239859-199.74321 148.45291-5.417989 22.033157-2.167196 44.788713-1.083598 66.099471 23.839153 18.421164 100.413404 33.952734 100.413404 33.952734s6.501587-19.504762 12.641975-51.2903c9.752381-47.317108 73.684656-123.530159 229.361552-182.405644z m675.80388 132.921341c-10.47478-76.213051-160.372487-113.055379-205.161199-148.452911-5.05679-3.973192-7.946384-17.337566-7.946385-21.671957 0-19.504762 5.05679-26.367549 5.05679-26.367549s80.186243-50.929101 78.741447-178.79365c-2.167196-54.179894-36.119929-151.342504-140.506526-151.342505h-5.779189c-22.394356 0-41.537919 4.334392-57.430687 11.197178 22.394356 74.768254 49.123104 211.662787-63.932276 303.768607-44.066314 66.099471 102.941799 104.747795 80.186244 94.273016 133.28254 59.959083 169.402469 105.831393 179.15485 153.5097 7.946384 39.731922 12.641975 63.932275 12.641975 63.932275s100.052205-15.17037 125.697355-34.675132c1.805996-20.58836 5.05679-43.343915-0.722399-65.377072zM585.295644 584.059259c-6.140388-5.05679-10.11358-21.671958-10.11358-27.089947 0-24.200353 6.140388-32.507937 6.140388-32.507936s98.607407-53.457496 96.801411-222.137566c-2.889594-67.544268-44.066314-187.823633-172.292063-187.823634h-7.223986c-134.004938 0-169.402469 120.279365-172.292064 187.823634-1.805996 158.92769 96.801411 222.137566 96.801411 222.137566s11.919577 13.725573 11.919577 37.925926c0 5.417989-9.391182 16.615168-15.892769 21.671957-54.902293 44.066314-252.839506 88.132628-265.842681 182.766843-10.11358 40.093122-68.627866 104.025397 126.780953 129.309348 53.818695 7.223986 126.780952 11.197178 225.749559 11.197178 453.305115 0 359.393298-87.771429 346.751322-139.422928-12.641975-93.911817-212.385185-139.784127-267.287478-183.850441z m0 0" p-id="3914" fill="#87C4FC"></path></svg>