<?xml version="1.0" standalone="no"?><!DOCTYPE svg PUBLIC "-//W3C//DTD SVG 1.1//EN" "http://www.w3.org/Graphics/SVG/1.1/DTD/svg11.dtd"><svg t="1620205852685" class="icon" viewBox="0 0 1024 1024" version="1.1" xmlns="http://www.w3.org/2000/svg" p-id="31136" xmlns:xlink="http://www.w3.org/1999/xlink" width="200" height="200"><defs><style type="text/css"></style></defs><path d="M379.333 766.69c0 8.413-6.523 17.493-14.498 20.178l-198.994 67.001c-7.973 2.684-14.498-2.003-14.498-10.416V275.729c0-8.413 6.523-17.493 14.498-20.178l198.994-67.001c7.973-2.685 14.498 2.003 14.498 10.416V766.69zM872.654 766.69c0 8.413-6.524 17.493-14.498 20.178l-198.993 67.001c-7.974 2.684-14.498-2.003-14.498-10.416V275.729c0-8.413 6.523-17.493 14.498-20.178l198.993-67.001c7.973-2.685 14.498 2.003 14.498 10.416V766.69zM398.006 766.69c0 8.413 6.523 17.493 14.498 20.178l198.993 67.001c7.974 2.684 14.497-2.003 14.497-10.416V275.729c0-8.413-6.523-17.493-14.497-20.178L412.504 188.55c-7.973-2.685-14.498 2.003-14.498 10.416V766.69z" fill="#87C4FC" p-id="31137"></path></svg>